<svg id="bath" xmlns="http://www.w3.org/2000/svg" width="27.842" height="27.842" viewBox="0 0 27.842 27.842">
  <path id="Caminho_77" data-name="Caminho 77" d="M25.854,16.9v2.983a5.792,5.792,0,0,1-1.989,4.444v3.014a.479.479,0,0,1-.5.5h-.994a.479.479,0,0,1-.5-.5V25.512a5.993,5.993,0,0,1-1.989.342H7.955a5.993,5.993,0,0,1-1.989-.342v1.709a.672.672,0,0,1-.148.443.442.442,0,0,1-.35.179H4.475a.442.442,0,0,1-.35-.179.672.672,0,0,1-.148-.443v-2.89a5.792,5.792,0,0,1-1.989-4.444V16.9ZM10.938,10.441a.479.479,0,1,1-.14-.357A.484.484,0,0,1,10.938,10.441Zm.994-.994a.479.479,0,1,1-.14-.357A.484.484,0,0,1,11.932,9.447Zm-.994-.994a.479.479,0,1,1-.14-.357A.484.484,0,0,1,10.938,8.452Zm1.989,0a.479.479,0,1,1-.14-.357A.484.484,0,0,1,12.927,8.452Zm-.994-.994a.479.479,0,1,1-.14-.357A.484.484,0,0,1,11.932,7.458Zm-.994-.994a.479.479,0,1,1-.14-.357A.484.484,0,0,1,10.938,6.463Zm16.9,7.955v.994a.479.479,0,0,1-.5.5H.5a.479.479,0,0,1-.5-.5v-.994a.479.479,0,0,1,.5-.5H1.989V3.977A3.832,3.832,0,0,1,3.154,1.165,3.832,3.832,0,0,1,5.966,0,3.844,3.844,0,0,1,8.825,1.212a2.9,2.9,0,0,1,1.523-.186,2.946,2.946,0,0,1,1.445.606l.342-.342a.214.214,0,0,1,.342,0l.653.653a.214.214,0,0,1,0,.342L8.25,7.163a.214.214,0,0,1-.342,0L7.256,6.51a.214.214,0,0,1,0-.342L7.6,5.826a2.936,2.936,0,0,1-.629-1.616,2.9,2.9,0,0,1,.365-1.678,1.989,1.989,0,0,0-2.773.039,1.916,1.916,0,0,0-.583,1.406v9.944H27.345a.479.479,0,0,1,.5.5ZM13.921,7.458a.479.479,0,1,1-.14-.357A.484.484,0,0,1,13.921,7.458Zm-.994-.994a.479.479,0,1,1-.14-.357A.484.484,0,0,1,12.927,6.463Zm-.994-.994a.479.479,0,1,1-.14-.357A.484.484,0,0,1,11.932,5.469Zm2.983.994a.479.479,0,1,1-.14-.357A.484.484,0,0,1,14.916,6.463Zm-.994-.994a.479.479,0,1,1-.14-.357A.484.484,0,0,1,13.921,5.469Zm-.994-.994a.479.479,0,1,1-.14-.357A.484.484,0,0,1,12.927,4.475Zm2.983.994a.479.479,0,1,1-.14-.357A.484.484,0,0,1,15.91,5.469Zm-.994-.994a.479.479,0,1,1-.14-.357A.484.484,0,0,1,14.916,4.475Zm1.989,0a.479.479,0,1,1-.14-.357A.484.484,0,0,1,16.9,4.475Z" transform="translate(0 0)" fill="#e9e9e9"/>
</svg>
