<svg id="car-sport-sharp" xmlns="http://www.w3.org/2000/svg" width="36.842" height="24.561" viewBox="0 0 36.842 24.561">
  <path id="Caminho_76" data-name="Caminho 76" d="M37.728,18.824a11.877,11.877,0,0,0-2.5-1.365c.4-.2.665-.246.665-1.091,0-.921,0-1.228-.619-1.228H33.189l-.026-.057c-1.345-2.937-1.525-3.679-3.531-4.678C26.942,9.068,21.9,9,19.921,9s-7.021.068-9.709,1.405c-2.008,1-1.958,1.511-3.531,4.678a.293.293,0,0,1-.031.057H4.566c-.609,0-.614.307-.614,1.228,0,.844.27.887.665,1.091a21.881,21.881,0,0,0-2.5,1.365c-.307.307-.614,2.456-.614,6.14s.307,7.368.307,7.368h.916c0,1.075.158,1.228.619,1.228h6.14c.461,0,.614-.154.614-1.228H29.745c0,1.075.154,1.228.614,1.228h6.294c.307,0,.461-.23.461-1.228h.921s.307-3.761.307-7.368S37.958,19.208,37.728,18.824ZM9.886,22.274a39.676,39.676,0,0,1-4.209.235c-1.567,0-1.621.1-1.732-.878a5.539,5.539,0,0,1,.039-1.344l.048-.234h.23a10.585,10.585,0,0,1,3.419.52,7.522,7.522,0,0,1,2.31,1.156,1.106,1.106,0,0,1,.411.473ZM28.857,27.8l-.339.849H11.324s.03-.047-.384-.858c-.307-.6.077-.984.684-1.2a25.538,25.538,0,0,1,8.3-1.624,21.733,21.733,0,0,1,8.328,1.624c.422.218.946.371.608,1.216ZM9.131,17.321a7.387,7.387,0,0,1-.745.005c.2-.356.312-.753.507-1.167.614-1.3,1.316-2.782,2.567-3.4,1.807-.9,5.552-1.3,8.461-1.3s6.654.4,8.461,1.3c1.25.622,1.95,2.1,2.567,3.4.2.418.307.818.513,1.177-.154.008-.33,0-.751-.015ZM35.82,21.628c-.164.958-.011.881-1.655.881a39.679,39.679,0,0,1-4.209-.235.329.329,0,0,1-.106-.545,7.2,7.2,0,0,1,2.31-1.156,9.95,9.95,0,0,1,3.461-.513.247.247,0,0,1,.237.23,5.387,5.387,0,0,1-.038,1.341Z" transform="translate(-1.5 -9)" fill="#e9e9e9"/>
</svg>
