<svg id="maximize_4536369" xmlns="http://www.w3.org/2000/svg" width="28.351" height="28.352" viewBox="0 0 28.351 28.352">
  <g id="Layer_2" data-name="Layer 2" transform="translate(0 0)">
    <path id="Caminho_71" data-name="Caminho 71" d="M24.125.681a136.258,136.258,0,0,0-19.215,0A4.585,4.585,0,0,0,.681,4.909a136.126,136.126,0,0,0,0,19.215,4.585,4.585,0,0,0,4.229,4.228,135.918,135.918,0,0,0,19.215,0,4.585,4.585,0,0,0,4.229-4.229,136.126,136.126,0,0,0,0-19.215A4.585,4.585,0,0,0,24.125.681Z" transform="translate(-0.341 -0.342)" fill="#e9e9e9"/>
  </g>
  <g id="Layer_1" data-name="Layer 1" transform="translate(5.123 5.122)">
    <path id="Caminho_72" data-name="Caminho 72" d="M9.091,7.811h2.935a.905.905,0,1,0,0-1.811H6.905A.92.92,0,0,0,6,6.905v5.121a.905.905,0,1,0,1.811,0V9.091l4.856,4.856a.917.917,0,0,0,1.28,0,.905.905,0,0,0,0-1.28Z" transform="translate(-6 -6)" fill="#151515"/>
    <path id="Caminho_73" data-name="Caminho 73" d="M24.236,18.209a.905.905,0,0,0-.905.905V22.05l-4.856-4.856a.905.905,0,1,0-1.28,1.28L22.05,23.33H19.115a.905.905,0,0,0,0,1.811h5.121a.922.922,0,0,0,.905-.905V19.115a.905.905,0,0,0-.905-.905Z" transform="translate(-7.035 -7.035)" fill="#151515"/>
  </g>
</svg>
