<svg xmlns="http://www.w3.org/2000/svg" width="25.879" height="17.916" viewBox="0 0 25.879 17.916">
  <g id="Icon_ionic-ios-mail" data-name="Icon ionic-ios-mail" transform="translate(0 0)">
    <path id="Caminho_23" data-name="Caminho 23" d="M29.042,10.352,22.348,17.17a.12.12,0,0,0,0,.174l4.684,4.989a.807.807,0,0,1,0,1.145.811.811,0,0,1-1.145,0l-4.666-4.97a.128.128,0,0,0-.18,0L19.9,19.665a5.009,5.009,0,0,1-3.571,1.505,5.109,5.109,0,0,1-3.645-1.549l-1.095-1.114a.128.128,0,0,0-.18,0l-4.666,4.97a.811.811,0,0,1-1.145,0,.807.807,0,0,1,0-1.145l4.684-4.989a.132.132,0,0,0,0-.174l-6.7-6.818a.123.123,0,0,0-.212.087V24.081a2,2,0,0,0,1.991,1.991h21.9a2,2,0,0,0,1.991-1.991V10.439A.124.124,0,0,0,29.042,10.352Z" transform="translate(-3.375 -8.156)" fill="#e0e0e0"/>
    <path id="Caminho_24" data-name="Caminho 24" d="M16.412,19.265a3.382,3.382,0,0,0,2.432-1.02l9.76-9.935a1.955,1.955,0,0,0-1.232-.435H5.457a1.942,1.942,0,0,0-1.232.435l9.76,9.935A3.382,3.382,0,0,0,16.412,19.265Z" transform="translate(-3.473 -7.875)" fill="#e0e0e0"/>
  </g>
</svg>
