<svg id="bed" xmlns="http://www.w3.org/2000/svg" width="34.386" height="27.017" viewBox="0 0 34.386 27.017">
  <path id="Caminho_74" data-name="Caminho 74" d="M33.7,21.514A6.1,6.1,0,0,0,31.245,21H9.14A6.143,6.143,0,0,0,3,27.14v8.6a1.228,1.228,0,0,0,2.456,0v-.614a.622.622,0,0,1,.614-.614H34.316a.622.622,0,0,1,.614.614v.614a1.228,1.228,0,0,0,2.456,0v-8.6A6.147,6.147,0,0,0,33.7,21.514Z" transform="translate(-3 -9.947)" fill="#e9e9e9"/>
  <path id="Caminho_75" data-name="Caminho 75" d="M30.219,7.5H11.8a4.3,4.3,0,0,0-4.3,4.3v5.526a.307.307,0,0,0,.392.295,7.33,7.33,0,0,1,2.064-.295h.325a.307.307,0,0,0,.307-.272,2.456,2.456,0,0,1,2.438-2.184h4.3a2.456,2.456,0,0,1,2.441,2.183.307.307,0,0,0,.307.273H21.95a.307.307,0,0,0,.307-.272,2.456,2.456,0,0,1,2.436-2.184h4.3a2.456,2.456,0,0,1,2.441,2.183.307.307,0,0,0,.307.273h.322a7.331,7.331,0,0,1,2.064.3.307.307,0,0,0,.392-.3V11.8A4.3,4.3,0,0,0,30.219,7.5Z" transform="translate(-3.816 -7.5)" fill="#e9e9e9"/>
</svg>
