<svg xmlns="http://www.w3.org/2000/svg" width="35.112" height="29.463" viewBox="0 0 35.112 29.463">
  <g id="handshake_9413582" transform="translate(-1.994 -7.001)">
    <path id="Caminho_29" data-name="Caminho 29" d="M43.368,17.6,38.457,7.547a.96.96,0,0,0-1.525-.284L34.547,9.508a5.867,5.867,0,0,1-3.138,1.6l-9.124,1.6c-.079.012-.146.029-.213.045l-.115.027a2.733,2.733,0,0,0-1.908,2.177l-.974,5.65a1.712,1.712,0,0,0,.3,1.3,1.655,1.655,0,0,0,2.951-.586l.884-3.519a2.5,2.5,0,0,1,2.006-1.863A4.364,4.364,0,0,1,25.7,15.9a3.668,3.668,0,0,1,2.3.815l8.788,7.1,1.081-1.376a9.124,9.124,0,0,1,3.142-2.57l1.915-.94A.992.992,0,0,0,43.368,17.6Z" transform="translate(-6.363 0)" fill="#530944"/>
    <path id="Caminho_30" data-name="Caminho 30" d="M2.287,19.911l.67.495a5.745,5.745,0,0,1,2.121,3.859l.091.749a4.294,4.294,0,0,0,.137.709,2.669,2.669,0,0,1,3.249.1,2.729,2.729,0,0,1,.918,1.427,2.67,2.67,0,0,1,3.233.112,2.75,2.75,0,0,1,.97,2.609,2.69,2.69,0,0,1,1.873.587,2.75,2.75,0,0,1,.97,2.609,2.677,2.677,0,0,1,1.873.587,2.765,2.765,0,0,1,.431,3.855l-.049.063a1.522,1.522,0,0,0,1.935.018,1.5,1.5,0,0,0-.048-2.3.627.627,0,0,1,.785-.977l1,.806a1.6,1.6,0,0,0,1.626.255l.038-.016a1.221,1.221,0,0,0,.31-.2,1.5,1.5,0,0,0-.052-2.293.627.627,0,1,1,.78-.982l1,.8a1.534,1.534,0,0,0,1.977.043,1.508,1.508,0,0,0-.054-2.3.627.627,0,1,1,.787-.976l1,.807a1.542,1.542,0,0,0,1.972.035,1.5,1.5,0,0,0-.051-2.3l-1.661-1.338-9.285-7.5a2.492,2.492,0,0,0-1.824-.514,1.242,1.242,0,0,0-.959.927l-.883,3.515A2.907,2.907,0,0,1,11.991,24.2a2.957,2.957,0,0,1-.513-2.246l.974-5.649a3.981,3.981,0,0,1,1.5-2.494c-.206-.023-.413-.041-.627-.057a7.543,7.543,0,0,1-3.145-.778l-2.79-1.61a1.286,1.286,0,0,0-1.022-.118,1.313,1.313,0,0,0-.8.681L2.03,19.089a.747.747,0,0,0,.257.822Z" transform="translate(0 -1.563)" fill="#530944"/>
    <path id="Caminho_31" data-name="Caminho 31" d="M9.693,35.9a1.447,1.447,0,0,0-.912-.324,1.33,1.33,0,0,0-.165.01,1.453,1.453,0,0,0-.985.55L7.4,36.42a1.136,1.136,0,0,0,.176,1.585l.569.459a1.081,1.081,0,0,0,.81.236,1.1,1.1,0,0,0,.741-.414l.23-.292A1.509,1.509,0,0,0,9.693,35.9Z" transform="translate(-1.928 -10.659)" fill="#530944"/>
    <path id="Caminho_32" data-name="Caminho 32" d="M15.54,38.355a1.472,1.472,0,0,0-2.062.235l-1.535,1.943a1.138,1.138,0,0,0,.176,1.586l.568.457a1.094,1.094,0,0,0,1.552-.174l1.537-1.943a1.5,1.5,0,0,0-.235-2.1Z" transform="translate(-3.621 -11.579)" fill="#530944"/>
    <path id="Caminho_33" data-name="Caminho 33" d="M20.335,43.453a1.473,1.473,0,0,0-2.062.235l-1.1,1.392a1.137,1.137,0,0,0,.176,1.585l.569.459a1.11,1.11,0,0,0,1.55-.178l1.1-1.392a1.5,1.5,0,0,0-.233-2.1Z" transform="translate(-5.572 -13.481)" fill="#530944"/>
    <path id="Caminho_34" data-name="Caminho 34" d="M25.393,48.545a1.455,1.455,0,0,0-2.058.233l-.229.29a1.138,1.138,0,0,0,.174,1.586l.57.459a1.094,1.094,0,0,0,1.55-.178l.227-.286A1.51,1.51,0,0,0,25.393,48.545Z" transform="translate(-7.785 -15.378)" fill="#530944"/>
  </g>
</svg>
