<svg xmlns="http://www.w3.org/2000/svg" width="32.402" height="31.31" viewBox="0 0 32.402 31.31">
  <g id="Icon_ionic-ios-heart" data-name="Icon ionic-ios-heart" transform="translate(0.5 0.5)">
    <path id="Icon_ionic-ios-heart-2" data-name="Icon ionic-ios-heart" d="M26.322,3.938h-.075a8.589,8.589,0,0,0-7.171,3.925A8.589,8.589,0,0,0,11.9,3.938h-.075a8.534,8.534,0,0,0-8.454,8.53A18.374,18.374,0,0,0,6.983,22.484C11.527,28.7,19.076,34.131,19.076,34.131S26.624,28.7,31.168,22.484a18.374,18.374,0,0,0,3.608-10.017A8.534,8.534,0,0,0,26.322,3.938Z" transform="translate(-3.375 -3.938)" fill="none" stroke="#fff" stroke-width="1"/>
  </g>
</svg>
