<svg xmlns="http://www.w3.org/2000/svg" width="17.018" height="17.014" viewBox="0 0 17.018 17.014">
  <path id="Icon_awesome-instagram" data-name="Icon awesome-instagram" d="M8.505,6.382a4.362,4.362,0,1,0,4.362,4.362A4.355,4.355,0,0,0,8.505,6.382Zm0,7.2a2.836,2.836,0,1,1,2.836-2.836A2.841,2.841,0,0,1,8.505,13.581ZM14.063,6.2a1.017,1.017,0,1,1-1.017-1.017A1.015,1.015,0,0,1,14.063,6.2Zm2.889,1.033a5.035,5.035,0,0,0-1.374-3.565A5.068,5.068,0,0,0,12.013,2.3c-1.4-.08-5.615-.08-7.02,0A5.061,5.061,0,0,0,1.429,3.668,5.052,5.052,0,0,0,.055,7.233c-.08,1.4-.08,5.615,0,7.02a5.035,5.035,0,0,0,1.374,3.565,5.075,5.075,0,0,0,3.565,1.374c1.4.08,5.615.08,7.02,0a5.035,5.035,0,0,0,3.565-1.374,5.068,5.068,0,0,0,1.374-3.565c.08-1.4.08-5.611,0-7.016ZM15.138,15.76a2.871,2.871,0,0,1-1.617,1.617c-1.12.444-3.777.342-5.015.342s-3.9.1-5.015-.342A2.871,2.871,0,0,1,1.873,15.76c-.444-1.12-.342-3.777-.342-5.015s-.1-3.9.342-5.015A2.871,2.871,0,0,1,3.49,4.112c1.12-.444,3.777-.342,5.015-.342s3.9-.1,5.015.342a2.871,2.871,0,0,1,1.617,1.617c.444,1.12.342,3.777.342,5.015S15.582,14.644,15.138,15.76Z" transform="translate(0.005 -2.238)" fill="#e0e0e0"/>
</svg>
