<svg id="Icon_awesome-linkedin" data-name="Icon awesome-linkedin" xmlns="http://www.w3.org/2000/svg" width="17.014" height="17.014" viewBox="0 0 17.014 17.014">
  <path id="Icon_awesome-linkedin-2" data-name="Icon awesome-linkedin" d="M15.8,2.25H1.211A1.221,1.221,0,0,0,0,3.477v14.56a1.221,1.221,0,0,0,1.211,1.227H15.8a1.224,1.224,0,0,0,1.215-1.227V3.477A1.224,1.224,0,0,0,15.8,2.25ZM5.142,16.833H2.62V8.714H5.146v8.119ZM3.881,7.6A1.462,1.462,0,1,1,5.343,6.143,1.463,1.463,0,0,1,3.881,7.6Zm10.713,9.228H12.073v-3.95c0-.942-.019-2.153-1.31-2.153-1.314,0-1.515,1.025-1.515,2.085v4.018H6.726V8.714H9.145V9.823h.034a2.656,2.656,0,0,1,2.389-1.31c2.552,0,3.027,1.682,3.027,3.87Z" transform="translate(0 -2.25)" fill="#e0e0e0"/>
</svg>
