<svg xmlns="http://www.w3.org/2000/svg" width="17.453" height="22.213" viewBox="0 0 17.453 22.213">
  <g id="location-filled" transform="translate(-7.5 -3)">
    <path id="Caminho_70" data-name="Caminho 70" d="M16.227,3A8.737,8.737,0,0,0,7.5,11.727a8.638,8.638,0,0,0,1.758,5.236s.238.313.277.359l6.692,7.892,6.695-7.9c.035-.042.274-.355.274-.355v0a8.635,8.635,0,0,0,1.757-5.234A8.737,8.737,0,0,0,16.227,3Zm0,11.9A3.173,3.173,0,1,1,19.4,11.727,3.173,3.173,0,0,1,16.227,14.9Z" transform="translate(0)" fill="#fff"/>
    <circle id="IconifyId-17e9079768a-d1151c-107" cx="3.173" cy="3.173" r="3.173" transform="translate(13.053 8.553)" fill="none"/>
  </g>
</svg>
