<svg xmlns="http://www.w3.org/2000/svg" width="25.878" height="25.878" viewBox="0 0 25.878 25.878">
  <path id="Icon_awesome-phone-alt" data-name="Icon awesome-phone-alt" d="M25.14,18.287l-5.661-2.426a1.213,1.213,0,0,0-1.415.349l-2.507,3.063A18.735,18.735,0,0,1,6.6,10.317L9.664,7.81a1.21,1.21,0,0,0,.349-1.415L7.587.734A1.221,1.221,0,0,0,6.2.031L.94,1.244A1.213,1.213,0,0,0,0,2.426,23.45,23.45,0,0,0,23.453,25.879a1.213,1.213,0,0,0,1.183-.94l1.213-5.257a1.228,1.228,0,0,0-.708-1.4Z" transform="translate(0 0)" fill="#e0e0e0"/>
</svg>
