<svg xmlns="http://www.w3.org/2000/svg" width="102.574" height="13.861" viewBox="0 0 102.574 13.861">
  <g id="Grupo_323" data-name="Grupo 323" transform="translate(-386.213 -3948.217)">
    <g id="Icon" transform="translate(386.213 3948.217)">
      <path id="Path" d="M8.954,1.667l2.252,4.561,5.035.736L12.6,10.513l.86,5.014-4.5-2.369-4.5,2.369.86-5.014L1.667,6.965,6.7,6.228Z" transform="translate(-1.667 -1.667)" fill="#dfd92b"/>
    </g>
    <g id="Icon-2" data-name="Icon" transform="translate(408.213 3948.217)">
      <path id="Path-2" data-name="Path" d="M8.954,1.667l2.252,4.561,5.035.736L12.6,10.513l.86,5.014-4.5-2.369-4.5,2.369.86-5.014L1.667,6.965,6.7,6.228Z" transform="translate(-1.667 -1.667)" fill="#dfd92b"/>
    </g>
    <g id="Icon-3" data-name="Icon" transform="translate(430.213 3948.217)">
      <path id="Path-3" data-name="Path" d="M8.954,1.667l2.252,4.561,5.035.736L12.6,10.513l.86,5.014-4.5-2.369-4.5,2.369.86-5.014L1.667,6.965,6.7,6.228Z" transform="translate(-1.667 -1.667)" fill="#dfd92b"/>
    </g>
    <g id="Icon-4" data-name="Icon" transform="translate(452.213 3948.217)">
      <path id="Path-4" data-name="Path" d="M8.954,1.667l2.252,4.561,5.035.736L12.6,10.513l.86,5.014-4.5-2.369-4.5,2.369.86-5.014L1.667,6.965,6.7,6.228Z" transform="translate(-1.667 -1.667)" fill="#dfd92b"/>
    </g>
    <g id="Icon-5" data-name="Icon" transform="translate(474.213 3948.217)">
      <path id="Path-5" data-name="Path" d="M8.954,1.667l2.252,4.561,5.035.736L12.6,10.513l.86,5.014-4.5-2.369-4.5,2.369.86-5.014L1.667,6.965,6.7,6.228Z" transform="translate(-1.667 -1.667)" fill="#dfd92b"/>
    </g>
  </g>
</svg>
