<svg xmlns="http://www.w3.org/2000/svg" width="31.347" height="31.347" viewBox="0 0 31.347 31.347">
  <path id="Icon_awesome-whatsapp" data-name="Icon awesome-whatsapp" d="M26.652,6.805A15.539,15.539,0,0,0,2.2,25.55L0,33.6l8.236-2.162a15.486,15.486,0,0,0,7.424,1.889h.007A15.683,15.683,0,0,0,31.347,17.791a15.6,15.6,0,0,0-4.7-10.986Zm-10.986,23.9a12.888,12.888,0,0,1-6.577-1.8l-.469-.28L3.736,29.91l1.3-4.765-.308-.49a12.936,12.936,0,1,1,23.993-6.864A13.055,13.055,0,0,1,15.667,30.707Zm7.081-9.67c-.385-.2-2.3-1.134-2.652-1.259s-.616-.2-.875.2-1,1.259-1.231,1.525-.455.294-.84.1a10.565,10.565,0,0,1-5.283-4.618c-.4-.686.4-.637,1.141-2.12a.719.719,0,0,0-.035-.679c-.1-.2-.875-2.106-1.2-2.883-.315-.756-.637-.651-.875-.665s-.483-.014-.742-.014a1.438,1.438,0,0,0-1.036.483,4.362,4.362,0,0,0-1.357,3.24,7.6,7.6,0,0,0,1.581,4.016c.2.259,2.736,4.177,6.633,5.864,2.463,1.064,3.429,1.155,4.66.973a3.975,3.975,0,0,0,2.617-1.847,3.246,3.246,0,0,0,.224-1.847C23.391,21.324,23.133,21.226,22.748,21.037Z" transform="translate(0 -2.25)" fill="#530944"/>
</svg>
