<svg id="whatsapp" xmlns="http://www.w3.org/2000/svg" width="17.752" height="17.832" viewBox="0 0 17.752 17.832">
  <g id="Grupo_260" data-name="Grupo 260" transform="translate(0 0)">
    <path id="Caminho_68" data-name="Caminho 68" d="M15.158,2.592A8.753,8.753,0,0,0,8.909,0a8.843,8.843,0,0,0-7.66,13.252L0,17.832,4.685,16.6a8.841,8.841,0,0,0,4.224,1.075h0A8.833,8.833,0,0,0,15.157,2.592ZM8.909,16.183a7.326,7.326,0,0,1-3.74-1.025L4.9,15l-2.78.729.742-2.712-.174-.28a7.341,7.341,0,1,1,6.219,3.448Zm4.029-5.5c-.22-.11-1.3-.644-1.508-.72s-.351-.11-.5.11-.572.72-.7.864-.259.165-.479.056A6.029,6.029,0,0,1,7.982,9.9,6.738,6.738,0,0,1,6.753,8.367c-.127-.221-.012-.339.1-.449s.22-.259.33-.386A1.409,1.409,0,0,0,7.4,7.165a.411.411,0,0,0-.017-.387c-.056-.11-.5-1.2-.682-1.638s-.36-.373-.5-.379-.275-.008-.424-.008a.812.812,0,0,0-.59.275,2.474,2.474,0,0,0-.77,1.843,4.278,4.278,0,0,0,.9,2.284A9.816,9.816,0,0,0,9.1,12.49a12.284,12.284,0,0,0,1.258.466,3.033,3.033,0,0,0,1.389.089,2.287,2.287,0,0,0,1.491-1.051,1.848,1.848,0,0,0,.127-1.051c-.055-.094-.2-.148-.424-.259Z" transform="translate(0 0)" fill="#fff"/>
  </g>
</svg>
