<svg xmlns="http://www.w3.org/2000/svg" width="24.197" height="17.014" viewBox="0 0 24.197 17.014">
  <path id="Icon_awesome-youtube" data-name="Icon awesome-youtube" d="M24.742,7.162A3.04,3.04,0,0,0,22.6,5.009C20.715,4.5,13.149,4.5,13.149,4.5s-7.567,0-9.454.509A3.04,3.04,0,0,0,1.556,7.162a31.9,31.9,0,0,0-.506,5.862,31.9,31.9,0,0,0,.506,5.862A3,3,0,0,0,3.695,21c1.887.509,9.454.509,9.454.509s7.567,0,9.454-.509a3,3,0,0,0,2.139-2.119,31.9,31.9,0,0,0,.506-5.862,31.9,31.9,0,0,0-.506-5.862Zm-14.068,9.46v-7.2L17,13.024l-6.324,3.6Z" transform="translate(-1.05 -4.5)" fill="#e0e0e0"/>
</svg>
